<svg xmlns="http://www.w3.org/2000/svg" viewBox="0 0 120 120" width="120" height="120">
  <defs>
    <radialGradient id="logoGrad" cx="50%" cy="30%" r="70%">
      <stop offset="0%" stop-color="#c855f7"/>
      <stop offset="100%" stop-color="#22d3ee"/>
    </radialGradient>
  </defs>
  <circle cx="60" cy="60" r="58" fill="url(#logoGrad)" opacity="0.95"/>
  <!-- Car body -->
  <rect x="18" y="62" width="84" height="22" rx="8" fill="none" stroke="white" stroke-width="2.5"/>
  <!-- Car roof -->
  <path d="M30 62 Q38 42 52 40 L68 40 Q82 42 90 62Z" fill="none" stroke="white" stroke-width="2.5"/>
  <!-- Wheels -->
  <circle cx="35" cy="84" r="9" fill="none" stroke="white" stroke-width="2.5"/>
  <circle cx="85" cy="84" r="9" fill="none" stroke="white" stroke-width="2.5"/>
  <!-- Wrench/gear icon on car -->
  <circle cx="60" cy="52" r="10" fill="none" stroke="white" stroke-width="2"/>
  <line x1="60" y1="42" x2="60" y2="36" stroke="white" stroke-width="2" stroke-linecap="round"/>
  <line x1="60" y1="62" x2="60" y2="68" stroke="white" stroke-width="2" stroke-linecap="round"/>
  <line x1="50" y1="52" x2="44" y2="52" stroke="white" stroke-width="2" stroke-linecap="round"/>
  <line x1="70" y1="52" x2="76" y2="52" stroke="white" stroke-width="2" stroke-linecap="round"/>
  <!-- Windows -->
  <path d="M32 62 Q36 50 46 48 L54 48 L52 62Z" fill="white" opacity="0.3"/>
  <path d="M68 48 L76 48 Q86 50 88 62Z" fill="white" opacity="0.3"/>
</svg>
